<?xml version="1.0" encoding="UTF-8"?>
<svg version="1.1" xmlns="http://www.w3.org/2000/svg" width="2000" height="1333">
<path d="M0 0 C2.26629888 1.17998296 4.53978489 2.34558357 6.81298828 3.51220703 C16.04420122 8.27549548 25.15762556 13.21128371 34.18408203 18.35205078 C42.78521906 23.24803703 51.42613316 28.06351273 60.12158203 32.78955078 C61.23041748 33.39839111 62.33925293 34.00723145 63.48168945 34.63452148 C65.03980347 35.47696411 65.03980347 35.47696411 66.62939453 36.33642578 C67.5460791 36.8349707 68.46276367 37.33351563 69.40722656 37.84716797 C73.54741199 39.75369877 76.02102172 40.30270983 80.45751953 39.10595703 C81.76846093 38.62124485 83.07295557 38.11885111 84.37158203 37.60205078 C85.07347656 37.3290918 85.77537109 37.05613281 86.49853516 36.77490234 C103.53288714 29.95352283 118.91084671 19.6248824 133.92822266 9.22045898 C181.17484059 -23.47148636 181.17484059 -23.47148636 206.99267578 -19.49951172 C218.71119917 -16.96174232 225.53774456 -11.10616273 232.99658203 -1.96044922 C235.87078326 -4.67649636 235.87078326 -4.67649636 237.99658203 -7.96044922 C238.65658203 -7.96044922 239.31658203 -7.96044922 239.99658203 -7.96044922 C239.99658203 -8.62044922 239.99658203 -9.28044922 239.99658203 -9.96044922 C248.60069662 -16.9894011 258.98183555 -20.74603908 270.12548828 -20.30029297 C294.58689276 -17.40486142 314.36671603 -3.51927239 334.34033203 9.97314453 C334.97563339 10.40226639 335.61093475 10.83138824 336.26548767 11.27351379 C336.90627762 11.70637192 337.54706757 12.13923004 338.20727539 12.58520508 C350.43193022 20.83999089 362.53672423 28.88990316 375.99658203 35.03955078 C376.63917969 35.33410156 377.28177734 35.62865234 377.94384766 35.93212891 C384.1240574 38.69814178 388.27306109 40.54431414 394.99658203 39.03955078 C397.74754519 37.87167121 397.74754519 37.87167121 400.46142578 36.33642578 C401.49734863 35.77463623 402.53327148 35.21284668 403.60058594 34.6340332 C404.70063965 34.025354 405.80069336 33.4166748 406.93408203 32.78955078 C408.08054199 32.16346924 409.22700195 31.5373877 410.40820312 30.89233398 C422.4434327 24.30937898 434.37706349 17.54228497 446.28417969 10.73095703 C474.5687132 -5.44270634 505.85140968 -22.59206602 537.99658203 -28.96044922 C538.95306641 -29.15123047 539.90955078 -29.34201172 540.89501953 -29.53857422 C556.75561936 -31.6959354 572.33102452 -29.72852369 585.99658203 -20.96044922 C592.80194778 -15.02385356 595.88307736 -8.54376403 596.80908203 0.41455078 C597.42733587 12.17481404 593.84666194 20.92873432 585.93408203 29.72705078 C574.33618862 40.33154861 558.79754623 43.37942592 543.99658203 47.03955078 C542.99195923 47.28862183 542.99195923 47.28862183 541.96704102 47.54272461 C499.60539498 58.01109552 458.56981757 62.61162919 414.99658203 59.03955078 C420.48602793 60.27400836 425.97720752 61.50035812 431.4699707 62.7199707 C433.32916297 63.13388839 435.18790664 63.54982747 437.04614258 63.96801758 C455.23354023 68.05833624 473.76499299 72.12832304 492.48486328 72.24267578 C493.64979309 72.25333321 493.64979309 72.25333321 494.83825684 72.26420593 C531.85455997 72.52597424 563.07318047 65.12630049 596.56689453 49.14892578 C598.04345703 48.44580078 599.52001953 47.74267578 600.99658203 47.03955078 C602.06650391 46.52908203 603.13642578 46.01861328 604.23876953 45.49267578 C621.96977359 37.53582631 643.23596049 34.30895442 661.99658203 40.03955078 C665.20509383 41.45129597 668.10455237 43.06593595 670.99658203 45.03955078 C671.98658203 45.69955078 672.97658203 46.35955078 673.99658203 47.03955078 C673.99658203 47.69955078 673.99658203 48.35955078 673.99658203 49.03955078 C674.65658203 49.03955078 675.31658203 49.03955078 675.99658203 49.03955078 C681.98870359 56.6065248 684.05562761 64.49456307 682.99658203 74.03955078 C681.17085355 80.77625779 676.85900171 84.5587391 670.99658203 88.03955078 C665.08275866 90.86790109 658.60155287 90.96041416 652.30517578 89.35205078 C646.61905254 87.31826601 643.15268719 85.23185281 639.99658203 80.03955078 C638.78113771 75.86146092 638.85675709 73.55515526 639.99658203 69.35205078 C642.41529446 65.34605833 644.51551382 63.40529468 648.99658203 62.03955078 C653.65531394 61.59885992 656.89840316 62.63884466 660.49658203 65.60205078 C661.32158203 66.40642578 662.14658203 67.21080078 662.99658203 68.03955078 C662.66658203 68.69955078 662.33658203 69.35955078 661.99658203 70.03955078 C659.78199827 69.56499712 658.07590249 69.08714306 656.12158203 67.91455078 C653.02064426 66.63769405 651.15818834 67.03052749 647.99658203 68.03955078 C645.736072 70.0569716 645.736072 70.0569716 644.99658203 73.03955078 C646.04371262 76.83539916 647.16001941 79.22913074 649.99658203 81.97705078 C655.87260591 84.05814257 661.83055004 83.95156425 667.55908203 81.53955078 C668.36345703 81.04455078 669.16783203 80.54955078 669.99658203 80.03955078 C670.65658203 80.03955078 671.31658203 80.03955078 671.99658203 80.03955078 C674.67947318 75.12643736 675.57573377 70.2118414 674.56298828 64.66455078 C672.82329469 58.8459146 670.3249665 53.92765252 664.84814453 50.82080078 C649.90300431 43.86957277 631.25777988 45.86943069 615.99658203 51.03955078 C608.49094504 53.80383518 601.35562773 57.32284607 594.25244141 60.97900391 C565.74879636 75.6175593 535.84449461 82.2667145 503.93408203 82.28955078 C503.08688599 82.29022552 502.23968994 82.29090027 501.36682129 82.29159546 C473.93421621 82.25698284 447.16320899 77.81311844 420.721035 70.52217674 C418.77593374 69.98717298 416.82884679 69.46012722 414.88088989 68.93562317 C414.23399263 68.7612312 413.58709538 68.58683924 412.92059517 68.40716267 C411.60985296 68.05382025 410.29906569 67.70064495 408.98823357 67.34763622 C405.67129703 66.45012421 402.36295454 65.53075014 399.0637207 64.57006836 C379.25399401 58.58204658 379.25399401 58.58204658 359.84718323 63.62150574 C358.51039173 64.38672348 357.18300431 65.16869287 355.86732483 65.96966553 C339.6127172 75.26574035 310.47661188 82.30776309 292.11376953 77.76220703 C286.25972983 75.76405695 282.81782411 72.47305405 279.99658203 67.03955078 C278.74521986 61.8672538 278.59297001 57.85940834 280.73486328 52.92626953 C285.19296088 46.25982637 293.5007505 43.61457269 300.99658203 42.03955078 C305.4423918 41.6011115 309.84412434 41.56474929 314.30908203 41.60205078 C316.1898645 41.61014771 316.1898645 41.61014771 318.10864258 41.6184082 C336.3633776 41.90610819 354.48317326 44.84713238 372.32080078 48.62158203 C374.96107603 49.29892671 374.96107603 49.29892671 376.99658203 48.03955078 C376.4599292 47.77440674 375.92327637 47.5092627 375.37036133 47.23608398 C358.44552522 38.80331449 343.38543208 28.68956057 328.12158203 17.60205078 C295.55397867 -6.97670915 295.55397867 -6.97670915 256.27783203 -11.56591797 C250.01076035 -9.85571355 245.13604588 -5.87981205 240.99658203 -0.96044922 C237.57494448 5.27453476 236.98010326 11.96789286 238.68798828 18.80908203 C240.60296535 24.79438692 242.40683038 28.72710536 247.99658203 32.03955078 C255.43605818 35.30880155 262.64921387 36.09623084 270.33251953 33.14111328 C273.33868632 31.69771912 275.62728097 30.40885184 277.99658203 28.03955078 C279.31658203 28.03955078 280.63658203 28.03955078 281.99658203 28.03955078 C280.48324273 32.57956869 276.93567898 34.69603741 272.99658203 37.03955078 C263.88682569 41.00031441 255.20651785 40.48544513 245.99658203 37.03955078 C240.08972986 33.86041571 236.8714908 30.02894406 233.99658203 24.03955078 C233.25408203 25.06048828 233.25408203 25.06048828 232.49658203 26.10205078 C226.43769701 33.22124069 220.15416342 38.37338895 210.68408203 39.85205078 C201.86560588 40.55692898 195.07681246 38.14124107 187.99658203 33.03955078 C187.00658203 32.37955078 186.01658203 31.71955078 184.99658203 31.03955078 C184.99658203 30.04955078 184.99658203 29.05955078 184.99658203 28.03955078 C187.92254192 28.50770436 189.64675427 29.42715346 192.24658203 30.97705078 C199.2720946 35.06407933 206.05882391 35.807677 213.99658203 34.03955078 C219.39972586 32.13251977 219.39972586 32.13251977 222.99658203 28.03955078 C223.65658203 28.03955078 224.31658203 28.03955078 224.99658203 28.03955078 C228.26391588 17.82656386 229.987455 10.3441095 225.99658203 0.03955078 C222.29685196 -5.83649109 216.72668739 -9.33899389 210.20751953 -11.57373047 C187.83668658 -15.48665001 169.90401517 -4.61293398 152.24658203 7.72705078 C146.47560044 11.79952756 140.75357535 15.93752573 135.04614258 20.09838867 C120.60457414 30.61238005 105.93910516 39.95854719 89.99658203 48.03955078 C93.4377958 49.18662204 94.84086653 48.85164679 98.34423828 48.11376953 C99.41464355 47.89487061 100.48504883 47.67597168 101.58789062 47.45043945 C102.73338379 47.21172119 103.87887695 46.97300293 105.05908203 46.72705078 C120.69690009 43.62742327 135.47725764 41.88177985 151.43408203 41.72705078 C152.6076123 41.70924561 153.78114258 41.69144043 154.99023438 41.6730957 C166.33313345 41.68356112 175.66239057 43.39013678 184.30908203 51.10205078 C187.52744539 54.79720871 187.33522274 58.79704777 187.27392578 63.46923828 C186.70935609 68.70144754 184.33816952 71.82884988 180.43408203 75.35205078 C162.18570558 84.31034467 138.17301822 75.62355688 120.18408203 69.66455078 C119.08821777 69.30167969 117.99235352 68.93880859 116.86328125 68.56494141 C107.94442547 65.5256667 107.94442547 65.5256667 103.79246521 63.39627075 C94.64839607 58.76989818 88.55136364 58.84945634 78.67626953 61.74267578 C77.3369653 62.09840967 75.99647933 62.44971968 74.65493774 62.79692078 C71.83296925 63.53504861 69.01975982 64.29840839 66.21069336 65.084198 C59.66503802 66.91302035 53.08354506 68.60522779 46.50426483 70.30822563 C44.34081354 70.86943054 42.17871866 71.43565949 40.0166626 72.00221252 C28.93060322 74.89076057 17.82236918 77.24222014 6.49658203 78.97705078 C5.78789978 79.08738647 5.07921753 79.19772217 4.34906006 79.31140137 C0.23806861 79.94404898 -3.87599055 80.52545731 -8.00341797 81.03955078 C-8.69754288 81.12727249 -9.39166779 81.2149942 -10.10682678 81.30537415 C-15.24892757 81.92214694 -20.32246621 82.22365097 -25.49951172 82.27783203 C-26.28219421 82.28762589 -27.06487671 82.29741974 -27.87127686 82.30751038 C-64.72939765 82.67330544 -98.99919187 76.959897 -131.63134766 58.91040039 C-145.88606543 51.09048105 -160.42533953 46.84549519 -176.75341797 46.66455078 C-177.61660645 46.65053223 -178.47979492 46.63651367 -179.36914062 46.62207031 C-188.66309418 46.69130894 -196.5942338 48.59952711 -203.37451172 55.16064453 C-207.68442093 60.13202661 -208.57982497 65.29368391 -208.34716797 71.67236328 C-207.81102364 75.36444812 -206.55829576 77.35365362 -204.00341797 80.03955078 C-198.5251361 83.3265199 -193.31960665 83.81996948 -187.00341797 83.03955078 C-182.89065888 81.49726612 -181.44560859 80.70283671 -179.00341797 77.03955078 C-178.79026812 73.62915318 -178.91852397 71.29423279 -180.00341797 68.03955078 C-185.53496875 66.82260961 -188.1164919 67.26288824 -193.00341797 70.03955078 C-193.99341797 70.03955078 -194.98341797 70.03955078 -196.00341797 70.03955078 C-195.94091797 68.28955078 -195.94091797 68.28955078 -195.00341797 66.03955078 C-191.29403016 63.23858448 -188.64121494 61.65164561 -183.94091797 61.97705078 C-179.53078326 62.80073353 -177.13619429 64.90677446 -174.00341797 68.03955078 C-172.40448882 71.23740908 -172.64079151 74.56102291 -173.00341797 78.03955078 C-175.25308361 83.41375203 -179.55789443 86.87236909 -184.75341797 89.35205078 C-193.0892748 91.11540511 -200.59543138 90.481861 -208.00341797 86.03955078 C-213.64365294 81.13953149 -216.50213031 76.30049588 -217.37841797 68.85205078 C-216.41703317 59.07797195 -212.43187734 51.45856794 -205.00341797 45.03955078 C-193.4487659 36.75664607 -177.56385471 36.01991127 -164.00341797 38.03955078 C-151.70934968 40.22154057 -140.21959864 43.92774609 -129.03466797 49.48876953 C-103.70086783 62.06951543 -76.08685364 72.07269576 -47.46435547 72.24267578 C-46.6699556 72.24978073 -45.87555573 72.25688568 -45.05708313 72.26420593 C-28.15169442 72.38091986 -11.64300752 72.34586568 4.99658203 69.03955078 C6.32924089 68.77917693 7.66192508 68.51893266 8.99462891 68.25878906 C23.38389762 65.43343345 37.72194895 62.39864987 51.99658203 59.03955078 C50.9685144 59.14348145 50.9685144 59.14348145 49.91967773 59.24951172 C39.01540003 60.22744263 28.12544785 60.2829206 17.18408203 60.28955078 C16.18147339 60.29022552 15.17886475 60.29090027 14.14587402 60.29159546 C-0.80282879 60.27562526 -15.27164774 59.78185173 -30.00341797 57.03955078 C-30.94217773 56.87326172 -31.8809375 56.70697266 -32.84814453 56.53564453 C-40.2714491 55.20609744 -47.64002595 53.66631183 -55.00341797 52.03955078 C-55.6680304 51.89283936 -56.33264282 51.74612793 -57.01739502 51.5949707 C-104.92534193 40.98722758 -104.92534193 40.98722758 -116.00341797 32.03955078 C-116.73818359 31.52779297 -117.47294922 31.01603516 -118.22998047 30.48876953 C-119.10783203 29.77140625 -119.10783203 29.77140625 -120.00341797 29.03955078 C-120.00341797 28.37955078 -120.00341797 27.71955078 -120.00341797 27.03955078 C-120.66341797 27.03955078 -121.32341797 27.03955078 -122.00341797 27.03955078 C-123.44091797 25.06298828 -123.44091797 25.06298828 -125.00341797 22.41455078 C-125.51904297 21.55603516 -126.03466797 20.69751953 -126.56591797 19.81298828 C-130.75293567 11.73477478 -131.37944846 3.05453438 -129.35107422 -5.81201172 C-125.79656903 -15.66699178 -119.64882803 -21.29445144 -110.32128906 -25.72314453 C-74.78982735 -41.58356512 -31.12738667 -16.21645705 0 0 Z M-114.44091797 -10.33544922 C-117.27501027 -4.21380984 -117.82149256 2.20005007 -116.00341797 8.72705078 C-112.54048239 17.34591268 -106.65847116 21.61923541 -98.50708008 25.56079102 C-92.27358323 28.19170806 -85.79828667 29.83545782 -79.25341797 31.47705078 C-77.75554483 31.86113505 -76.25774349 32.24549941 -74.76000977 32.63012695 C-70.18168004 33.79652509 -65.59443004 34.92424496 -61.00341797 36.03955078 C-60.30081848 36.21095581 -59.59821899 36.38236084 -58.87432861 36.55895996 C-18.71944892 46.31909793 23.00780465 52.23225216 63.99658203 44.03955078 C60.97948898 41.65168628 57.87664913 39.80476816 54.48095703 38.00048828 C53.40346191 37.42500244 52.3259668 36.8495166 51.21582031 36.2565918 C50.07097168 35.64871826 48.92612305 35.04084473 47.74658203 34.41455078 C40.49895127 30.54591817 33.25678639 26.6754848 26.12158203 22.60205078 C7.15962841 11.85008278 -11.97700909 1.67944981 -32.00341797 -6.96044922 C-32.84227539 -7.32750977 -33.68113281 -7.69457031 -34.54541016 -8.07275391 C-58.40847786 -18.50646987 -92.99874896 -33.42701585 -114.44091797 -10.33544922 Z M424.12158203 31.45581055 C417.13097595 35.41623376 410.10210124 39.2890368 402.99658203 43.03955078 C435.41644304 61.800681 497.94550878 43.5605807 532.12158203 35.03955078 C532.940177 34.83644287 533.75877197 34.63333496 534.60217285 34.42407227 C543.43892313 32.21298935 552.1783556 29.76872399 560.84033203 26.94580078 C561.58106964 26.70837158 562.32180725 26.47094238 563.08499146 26.22631836 C571.40121278 23.4385085 577.82395057 18.86323477 581.99658203 11.03955078 C583.90947278 5.00158269 584.40351394 -3.05608075 581.55908203 -8.83544922 C576.6872657 -15.89355769 567.74233949 -19.57991189 559.68798828 -21.51513672 C515.63741492 -28.80362056 460.67719821 10.72009908 424.12158203 31.45581055 Z M107.99658203 55.03955078 C107.99658203 55.69955078 107.99658203 56.35955078 107.99658203 57.03955078 C140.81346919 70.66334343 140.81346919 70.66334343 174.99658203 69.03955078 C177.04109222 67.99581056 177.04109222 67.99581056 177.99658203 66.03955078 C178.82403839 62.17808775 179.25344302 59.81013375 177.99658203 56.03955078 C175.85189541 54.60575533 175.85189541 54.60575533 173.24658203 53.41455078 C172.38548828 52.98916016 171.52439453 52.56376953 170.63720703 52.12548828 C152.40962565 44.62953026 126.5703077 51.54885541 107.99658203 55.03955078 Z M289.80908203 55.16455078 C287.53335237 58.77432886 287.55850175 60.88649105 288.28564453 65.01611328 C288.89573826 67.27543929 288.89573826 67.27543929 291.24658203 69.03955078 C304.16863493 73.73847911 317.90585054 69.59040077 330.68408203 66.28955078 C331.3421283 66.12141876 332.00017456 65.95328674 332.67816162 65.78005981 C341.71354933 63.45088957 350.36161308 60.57656867 358.99658203 57.03955078 C358.99658203 56.37955078 358.99658203 55.71955078 358.99658203 55.03955078 C355.018002 54.39006959 351.03861974 53.74563578 347.05908203 53.10205078 C345.94210937 52.91964844 344.82513672 52.73724609 343.67431641 52.54931641 C333.73828979 50.94673147 324.12990739 49.84546098 314.05908203 49.78955078 C313.13417969 49.76892578 312.20927734 49.74830078 311.25634766 49.72705078 C303.46366874 49.68336372 296.38099575 50.78327497 289.80908203 55.16455078 Z M77.99658203 51.03955078 C77.33658203 51.69955078 76.67658203 52.35955078 75.99658203 53.03955078 C77.31658203 52.70955078 78.63658203 52.37955078 79.99658203 52.03955078 C79.33658203 51.70955078 78.67658203 51.37955078 77.99658203 51.03955078 Z M385.99658203 52.03955078 C385.99658203 52.36955078 385.99658203 52.69955078 385.99658203 53.03955078 C387.64658203 53.03955078 389.29658203 53.03955078 390.99658203 53.03955078 C390.99658203 52.70955078 390.99658203 52.37955078 390.99658203 52.03955078 C389.34658203 52.03955078 387.69658203 52.03955078 385.99658203 52.03955078 Z M71.99658203 53.03955078 C75.99658203 54.03955078 75.99658203 54.03955078 75.99658203 54.03955078 Z M67.99658203 54.03955078 C71.99658203 55.03955078 71.99658203 55.03955078 71.99658203 55.03955078 Z M63.99658203 55.03955078 C67.99658203 56.03955078 67.99658203 56.03955078 67.99658203 56.03955078 Z M59.99658203 56.03955078 C63.99658203 57.03955078 63.99658203 57.03955078 63.99658203 57.03955078 Z M402.99658203 56.03955078 C406.99658203 57.03955078 406.99658203 57.03955078 406.99658203 57.03955078 Z M54.99658203 57.03955078 C58.99658203 58.03955078 58.99658203 58.03955078 58.99658203 58.03955078 Z M407.99658203 57.03955078 C411.99658203 58.03955078 411.99658203 58.03955078 411.99658203 58.03955078 Z " fill="#FFFFFF" transform="translate(768.00341796875,630.96044921875)"/>
<path d="M0 0 C2.90448775 1.04993484 5.78813661 2.14594665 8.67041016 3.25537109 C9.61207031 3.61308594 10.55373047 3.97080078 11.52392578 4.33935547 C13.00602539 4.90299805 13.00602539 4.90299805 14.51806641 5.47802734 C15.57769876 5.86468976 16.6373311 6.25135218 17.72907352 6.64973164 C20.40433673 7.66412919 22.8979012 8.84141277 25.4279623 10.17451 C43.00839906 18.82704043 62.16844822 17.29890491 81.25559461 17.16196191 C86.49668943 17.13330286 91.73766045 17.1514588 96.97879028 17.16375732 C106.03769387 17.17887216 115.09618085 17.16537331 124.1550312 17.13221169 C137.25654609 17.08455727 150.35773942 17.0842872 163.45932054 17.0957789 C184.7266093 17.11344096 205.99373051 17.09780813 227.26098633 17.05883789 C247.8977055 17.02113543 268.53439166 16.99177702 289.17114258 16.97875977 C290.44478487 16.97794876 291.71842717 16.97713776 293.03066469 16.97630218 C306.92905071 16.96783173 320.82743288 16.96332544 334.7258215 16.964221 C335.94617821 16.9642951 337.16653493 16.96436921 338.42387215 16.96444556 C343.30118005 16.96481286 348.17848784 16.96525031 353.05579566 16.96622678 C367.33745935 16.96902629 381.61898207 16.95932355 395.90061175 16.92704507 C404.84391678 16.90719442 413.78719554 16.89705852 422.73052222 16.89464233 C427.89362391 16.89276723 433.05659451 16.88570434 438.21965981 16.86554527 C442.94074765 16.84713632 447.66164328 16.84228899 452.38276123 16.84840485 C454.09485383 16.84812279 455.80695454 16.84268177 457.51901192 16.83169696 C459.83776042 16.8175064 462.15576837 16.82162262 464.47452641 16.83045673 C465.76482417 16.82801875 467.05512194 16.82558077 468.38451964 16.82306892 C471.7853796 17.2132312 473.16079601 17.86670538 475.60791016 20.19287109 C475.29541016 23.56787109 475.29541016 23.56787109 474.60791016 27.19287109 C470.89452562 29.66846079 469.06984289 29.43290854 464.63502979 29.41268444 C463.91755143 29.41218656 463.20007308 29.41168867 462.46085295 29.4111757 C460.03772382 29.40708107 457.61490994 29.38862182 455.19184875 29.3704071 C453.44410585 29.3646724 451.69635972 29.35985804 449.94861192 29.35588866 C446.13809215 29.34532733 442.32766948 29.32842452 438.51719666 29.30678368 C432.31602752 29.27167526 426.11485596 29.25036414 419.91362 29.23110962 C413.23287973 29.20964966 406.55215079 29.18698687 399.87143195 29.1595844 C383.25992815 29.09146951 366.64853762 29.05214085 350.03691101 29.0304718 C347.60208855 29.02717139 345.16726609 29.02387014 342.73244363 29.02056807 C337.80103894 29.01398848 332.86963404 29.00759292 327.93822896 29.0013119 C315.24649521 28.98509227 302.55476429 28.96781846 289.86303711 28.94702148 C288.58926168 28.94494644 287.31548625 28.94287139 286.00311156 28.94073347 C265.45362248 28.90579598 244.90456261 28.82374912 224.35529003 28.72565558 C203.214669 28.62602122 182.07446446 28.58456205 160.93360966 28.59385139 C147.92350879 28.59764935 134.9151865 28.55676426 121.90546878 28.45592652 C112.94884372 28.39074281 103.9932096 28.38227073 95.03641544 28.41554662 C89.89217239 28.4330252 84.75099408 28.42807104 79.60718155 28.35433006 C52.32805184 27.98435701 30.58136821 32.36361434 5.60381001 43.50331813 C-6.18807624 48.6259511 -6.18807624 48.6259511 -10.03442383 47.24243164 C-11.10672241 46.32651245 -11.10672241 46.32651245 -12.20068359 45.39208984 C-13.03325684 44.72483887 -13.86583008 44.05758789 -14.72363281 43.37011719 C-15.60422363 42.65162598 -16.48481445 41.93313477 -17.39208984 41.19287109 C-19.36990214 39.82610095 -21.36128484 38.47879102 -23.36474609 37.14990234 C-24.36570312 36.46863281 -25.36666016 35.78736328 -26.39794922 35.08544922 C-28.46520574 33.67865804 -30.53831409 32.28043388 -32.61669922 30.89013672 C-33.60605469 30.21273437 -34.59541016 29.53533203 -35.61474609 28.83740234 C-36.50943604 28.23259033 -37.40412598 27.62777832 -38.32592773 27.00463867 C-40.55075873 25.05373818 -41.06341437 24.08481689 -41.39208984 21.19287109 C-40.42529297 20.55220703 -39.45849609 19.91154297 -38.46240234 19.25146484 C-26.03797005 11.23652864 -26.03797005 11.23652864 -14.21630859 2.39599609 C-13.53181641 1.83396484 -12.84732422 1.27193359 -12.14208984 0.69287109 C-11.55943359 0.18755859 -10.97677734 -0.31775391 -10.37646484 -0.83837891 C-6.75323072 -2.60720186 -3.66585338 -1.23691685 0 0 Z " fill="#FFFFFF" transform="translate(65.39208984375,667.80712890625)"/>
<path d="M0 0 C7.31870389 4.45012099 14.26269806 9.55477106 21.19116211 14.5859375 C24.37717804 16.88990717 27.59497011 19.03335657 31 21 C30.63933877 23.67717414 30.23776886 24.78381997 28.20922852 26.62817383 C27.05571899 27.40970825 27.05571899 27.40970825 25.87890625 28.20703125 C25.02490234 28.79419922 24.17089844 29.38136719 23.29101562 29.98632812 C22.39060547 30.58896484 21.49019531 31.19160156 20.5625 31.8125 C19.2640918 32.69905273 19.2640918 32.69905273 17.93945312 33.60351562 C16.1847285 34.80164107 14.42638764 35.99448672 12.66455078 37.18212891 C9.16674206 39.56848439 5.73270736 42.04110398 2.30444336 44.52612305 C-0.10096457 46.06457497 -2.26877412 47.16309579 -5 48 C-7.68266657 47.25242205 -9.96812474 46.41730197 -12.5 45.3125 C-14.07491674 44.67553885 -15.65006723 44.03915549 -17.22539616 43.40321445 C-21.17271423 41.79530648 -25.02045968 40.05024523 -28.86791897 38.21750546 C-49.65420237 28.80167138 -69.13124888 28.45463338 -91.66075242 28.69737136 C-96.90851138 28.74143088 -102.15610279 28.72050325 -107.40397644 28.70794678 C-116.4623647 28.69469829 -125.51992637 28.72065898 -134.57815742 28.7740345 C-147.67850718 28.85081643 -160.77830545 28.86206376 -173.87885009 28.85737663 C-195.14734205 28.85113955 -216.41547527 28.89074252 -237.68383789 28.96264648 C-258.31436002 29.0322404 -278.9448267 29.08988681 -299.57543945 29.12475586 C-300.84996696 29.12692043 -302.12449446 29.12908501 -303.43764401 29.13131518 C-317.3459852 29.15441983 -331.25432429 29.17215722 -345.16268063 29.18282986 C-346.38374155 29.18377414 -347.60480248 29.18471841 -348.86286525 29.18569131 C-353.74273248 29.18937518 -358.6225996 29.19297413 -363.50246739 29.19585448 C-377.78531098 29.20438034 -392.06788423 29.22977536 -406.35062497 29.28568202 C-415.2887043 29.32020693 -424.22674873 29.34182831 -433.16488744 29.35319055 C-438.3240475 29.36039645 -443.48296739 29.37453479 -448.64204025 29.40615654 C-453.35913473 29.43504063 -458.07590341 29.44583395 -462.79308151 29.4420033 C-464.50360267 29.44395207 -466.21413196 29.45278676 -467.92457718 29.46902097 C-470.24125056 29.49009472 -472.55662666 29.48673575 -474.87334538 29.47708225 C-476.16234432 29.48152617 -477.45134327 29.48597009 -478.77940279 29.49054867 C-482.56031087 28.91465566 -483.74281593 28.03220016 -486 25 C-486.5 22.4375 -486.5 22.4375 -486 20 C-483.61796517 17.55225992 -482.20515238 17.02343138 -478.78236282 16.63249916 C-476.85098171 16.63778235 -476.85098171 16.63778235 -474.88058281 16.64317226 C-474.15944463 16.64101832 -473.43830645 16.63886438 -472.6953156 16.63664517 C-470.26579237 16.63303944 -467.83689539 16.65092822 -465.40744019 16.66856384 C-463.65297941 16.67028503 -461.89851689 16.67066072 -460.14405549 16.66980273 C-455.31191898 16.671174 -450.48000681 16.691118 -445.64793015 16.71385062 C-440.43956353 16.73500057 -435.23118397 16.73871425 -430.02278137 16.74411011 C-420.98939627 16.75543524 -411.95607764 16.77658944 -402.92272568 16.80326653 C-388.62475992 16.84451579 -374.32685692 16.85361653 -360.02883911 16.85731506 C-355.13461871 16.85896151 -350.24039838 16.86079048 -345.34617805 16.86265659 C-343.51118344 16.86333863 -343.51118344 16.86333863 -341.63911822 16.86403446 C-327.70537091 16.86958684 -313.77163118 16.88111601 -299.83789062 16.89575195 C-298.56399897 16.89708095 -297.29010731 16.89840994 -295.97761287 16.89977921 C-275.38331315 16.92215834 -254.78914178 16.97109494 -234.19491063 17.02731603 C-213.0294869 17.08417628 -191.86425228 17.10243104 -170.69875729 17.0879069 C-157.65900684 17.08035899 -144.62006809 17.10381228 -131.58047004 17.16800875 C-122.62223373 17.20942478 -113.66444134 17.21389433 -104.70614259 17.19030439 C-99.55010272 17.17785759 -94.39542223 17.1810356 -89.23956108 17.2290554 C-67.52551573 17.42027959 -49.3256398 17.00705248 -29.50573564 7.20206463 C-25.68418953 5.3687725 -21.73432857 3.9346632 -17.75 2.5 C-16.56921875 2.0565625 -15.3884375 1.613125 -14.171875 1.15625 C-13.12515625 0.7746875 -12.0784375 0.393125 -11 0 C-9.97390625 -0.4228125 -8.9478125 -0.845625 -7.890625 -1.28125 C-4.35061643 -2.16146835 -3.16622127 -1.72611746 0 0 Z " fill="#FFFFFF" transform="translate(1945,668)"/>
<path d="M0 0 C0.99 0.33 1.98 0.66 3 1 C3.73828125 2.96875 3.73828125 2.96875 4.3125 5.5 C6.70655387 14.09403953 10.91777684 20.09223676 18.546875 24.7890625 C21.93386171 26.46098269 25.36641949 27.47710099 29.03125 28.359375 C29.6809375 28.57078125 30.330625 28.7821875 31 29 C31.495 29.99 31.495 29.99 32 31 C30.72125 31.20625 29.4425 31.4125 28.125 31.625 C19.76583689 33.52062124 12.99791226 37.79951805 8.1796875 44.91796875 C5.49865933 49.64971714 3.84117607 54.61647316 3 60 C2.01 60 1.02 60 0 60 C-0.17015625 59.27554688 -0.3403125 58.55109375 -0.515625 57.8046875 C-1.95915692 52.04591653 -3.46507903 47.75385923 -7 43 C-7 42.34 -7 41.68 -7 41 C-7.66 41 -8.32 41 -9 41 C-9.66 40.2575 -10.32 39.515 -11 38.75 C-15.62041729 33.90956284 -22.58858827 32.14489495 -29 31 C-29 30.34 -29 29.68 -29 29 C-27.67935547 28.63648438 -27.67935547 28.63648438 -26.33203125 28.265625 C-25.17058594 27.93046875 -24.00914062 27.5953125 -22.8125 27.25 C-21.66394531 26.92515625 -20.51539063 26.6003125 -19.33203125 26.265625 C-15.90918424 24.96550492 -13.77248884 23.34405806 -11 21 C-10.34 21 -9.68 21 -9 21 C-9 20.34 -9 19.68 -9 19 C-8.34 19 -7.68 19 -7 19 C-6.731875 18.29875 -6.46375 17.5975 -6.1875 16.875 C-5 14 -5 14 -3.5 11.1875 C-1.75163992 7.47223483 -0.8967646 4.00094977 0 0 Z " fill="#FFFFFF" transform="translate(1000,668)"/>
</svg>
